<?xml version="1.0" encoding="UTF-8" standalone="no"?>
<!-- Created with Inkscape (http://www.inkscape.org/) -->

<svg
   xmlns:dc="http://purl.org/dc/elements/1.1/"
   xmlns:cc="http://creativecommons.org/ns#"
   xmlns:rdf="http://www.w3.org/1999/02/22-rdf-syntax-ns#"
   xmlns:svg="http://www.w3.org/2000/svg"
   xmlns="http://www.w3.org/2000/svg"
   xmlns:inkscape="http://www.inkscape.org/namespaces/inkscape"
   width="53.599998mm"
   height="91.699997mm"
   viewBox="0 0 53.599998 91.699997"
   version="1.1"
   id="svg6229"
   inkscape:version="0.92.2 5c3e80d, 2017-08-06">
  <metadata
     id="metadata6226">
    <rdf:RDF>
      <cc:Work
         rdf:about="">
        <dc:format>image/svg+xml</dc:format>
        <dc:type
           rdf:resource="http://purl.org/dc/dcmitype/StillImage" />
        <dc:title></dc:title>
      </cc:Work>
    </rdf:RDF>
  </metadata>
  <g
     inkscape:label="Layer 1"
     inkscape:groupmode="layer"
     id="layer1"
     transform="translate(0,-205.3)">
    <rect
       style="fill:none;fill-opacity:1;stroke:#000000;stroke-width:0.5;stroke-opacity:1;stroke-miterlimit:4;stroke-dasharray:none"
       id="rect6798"
       width="47.299999"
       height="10.675"
       x="3.1499999"
       y="208.45" />
    <rect
       style="fill:none;fill-opacity:1;stroke:#000000;stroke-width:0.5;stroke-miterlimit:4;stroke-dasharray:none;stroke-opacity:1"
       id="rect6800"
       width="47.299999"
       height="10.675"
       x="3.1499999"
       y="219.125" />
    <rect
       style="fill:none;fill-opacity:1;stroke:#000000;stroke-width:0.5;stroke-miterlimit:4;stroke-dasharray:none;stroke-opacity:1"
       id="rect6802"
       width="47.299999"
       height="21.35"
       x="3.1499999"
       y="229.8" />
    <rect
       style="fill:none;fill-opacity:1;stroke:#000000;stroke-width:0.5;stroke-miterlimit:4;stroke-dasharray:none;stroke-opacity:1"
       id="rect6804"
       width="47.299999"
       height="10.675"
       x="3.1499999"
       y="251.14999" />
    <rect
       style="fill:none;fill-opacity:1;stroke:#000000;stroke-width:0.5;stroke-miterlimit:4;stroke-dasharray:none;stroke-opacity:1"
       id="rect6806"
       width="47.299999"
       height="21.35"
       x="3.1499999"
       y="261.82501" />
    <rect
       style="fill:none;fill-opacity:1;stroke:#000000;stroke-width:0.5;stroke-miterlimit:4;stroke-dasharray:none;stroke-opacity:1"
       id="rect6808"
       width="47.299999"
       height="10.675"
       x="3.1499999"
       y="283.17499" />
    <g
       aria-label="Formation"
       style="font-style:normal;font-variant:normal;font-weight:bold;font-stretch:normal;font-size:2.82222223px;line-height:125%;font-family:sans-serif;-inkscape-font-specification:'sans-serif, Bold';font-variant-ligatures:normal;font-variant-caps:normal;font-variant-numeric:normal;font-feature-settings:normal;text-align:start;letter-spacing:0px;word-spacing:0px;writing-mode:lr-tb;text-anchor:start;fill:#000000;fill-opacity:1;stroke:none;stroke-width:0.26458332px;stroke-linecap:butt;stroke-linejoin:miter;stroke-opacity:1"
       id="text6820">
      <path
         d="m 4.4765709,252.29508 h 1.4317817 v 0.40101 h -0.901237 v 0.3831 h 0.8474935 v 0.40101 H 5.0071156 v 0.87229 H 4.4765709 Z"
         style="font-style:normal;font-variant:normal;font-weight:bold;font-stretch:normal;font-size:2.82222223px;font-family:sans-serif;-inkscape-font-specification:'sans-serif, Bold';font-variant-ligatures:normal;font-variant-caps:normal;font-variant-numeric:normal;font-feature-settings:normal;text-align:start;writing-mode:lr-tb;text-anchor:start;stroke-width:0.26458332px"
         id="path6932" />
      <path
         d="m 7.0052709,253.12466 q -0.1639865,0 -0.2508029,0.11851 -0.085438,0.11714 -0.085438,0.339 0,0.22186 0.085438,0.34038 0.086816,0.11713 0.2508029,0.11713 0.1612305,0 0.2466689,-0.11713 0.085438,-0.11852 0.085438,-0.34038 0,-0.22186 -0.085438,-0.339 -0.085438,-0.11851 -0.2466689,-0.11851 z m 0,-0.35278 q 0.3982531,0 0.6214952,0.21498 0.2246203,0.21497 0.2246203,0.59531 0,0.38034 -0.2246203,0.59531 -0.2232421,0.21498 -0.6214952,0.21498 -0.3996311,0 -0.6256293,-0.21498 -0.2246202,-0.21497 -0.2246202,-0.59531 0,-0.38034 0.2246202,-0.59531 0.2259982,-0.21498 0.6256293,-0.21498 z"
         style="font-style:normal;font-variant:normal;font-weight:bold;font-stretch:normal;font-size:2.82222223px;font-family:sans-serif;-inkscape-font-specification:'sans-serif, Bold';font-variant-ligatures:normal;font-variant-caps:normal;font-variant-numeric:normal;font-feature-settings:normal;text-align:start;writing-mode:lr-tb;text-anchor:start;stroke-width:0.26458332px"
         id="path6934" />
      <path
         d="m 9.3603384,253.22939 q -0.064768,-0.0303 -0.1295356,-0.0441 -0.06339,-0.0152 -0.1281575,-0.0152 -0.1901693,0 -0.2935222,0.12264 -0.1019748,0.12127 -0.1019748,0.34865 v 0.71106 H 8.2138106 v -1.5434 h 0.4933377 v 0.25356 q 0.095085,-0.15158 0.21773,-0.22049 0.1240235,-0.0703 0.2962782,-0.0703 0.024805,0 0.053744,0.003 0.028939,0.001 0.08406,0.008 z"
         style="font-style:normal;font-variant:normal;font-weight:bold;font-stretch:normal;font-size:2.82222223px;font-family:sans-serif;-inkscape-font-specification:'sans-serif, Bold';font-variant-ligatures:normal;font-variant-caps:normal;font-variant-numeric:normal;font-feature-settings:normal;text-align:start;writing-mode:lr-tb;text-anchor:start;stroke-width:0.26458332px"
         id="path6936" />
      <path
         d="m 11.038789,253.06541 q 0.09371,-0.14332 0.221864,-0.21773 0.129536,-0.0758 0.283876,-0.0758 0.265961,0 0.405143,0.16399 0.139182,0.16399 0.139182,0.4768 v 0.93982 H 11.59276 v -0.80477 q 0.0014,-0.0179 0.0014,-0.0372 0.0014,-0.0193 0.0014,-0.0551 0,-0.16399 -0.04823,-0.23702 -0.04823,-0.0744 -0.155718,-0.0744 -0.14056,0 -0.21773,0.11576 -0.07579,0.11575 -0.07855,0.33486 v 0.75792 h -0.496093 v -0.80477 q 0,-0.25632 -0.0441,-0.32935 -0.0441,-0.0744 -0.157096,-0.0744 -0.141938,0 -0.219108,0.11714 -0.07717,0.11575 -0.07717,0.3321 v 0.7593 H 9.6056292 v -1.5434 h 0.4960938 v 0.226 q 0.09095,-0.13091 0.208084,-0.19706 0.118511,-0.0661 0.260449,-0.0661 0.159852,0 0.282498,0.0772 0.122645,0.0772 0.186035,0.21636 z"
         style="font-style:normal;font-variant:normal;font-weight:bold;font-stretch:normal;font-size:2.82222223px;font-family:sans-serif;-inkscape-font-specification:'sans-serif, Bold';font-variant-ligatures:normal;font-variant-caps:normal;font-variant-numeric:normal;font-feature-settings:normal;text-align:start;writing-mode:lr-tb;text-anchor:start;stroke-width:0.26458332px"
         id="path6938" />
      <path
         d="m 13.24365,253.65796 q -0.154341,0 -0.232889,0.0524 -0.07717,0.0524 -0.07717,0.15434 0,0.0937 0.06201,0.14745 0.06339,0.0524 0.17501,0.0524 0.139182,0 0.234267,-0.0992 0.09508,-0.10059 0.09508,-0.2508 v -0.0565 z m 0.753786,-0.18603 v 0.88056 h -0.497471 v -0.22875 q -0.09922,0.14056 -0.223243,0.20533 -0.124023,0.0634 -0.30179,0.0634 -0.239779,0 -0.389985,-0.13919 -0.148828,-0.14056 -0.148828,-0.3638 0,-0.27147 0.186035,-0.39825 0.187413,-0.12678 0.587045,-0.12678 h 0.290766 v -0.0386 q 0,-0.11713 -0.09233,-0.17087 -0.09233,-0.0551 -0.28801,-0.0551 -0.158474,0 -0.2949,0.0317 -0.136426,0.0317 -0.253559,0.0951 v -0.37621 q 0.158474,-0.0386 0.318327,-0.0579 0.159852,-0.0207 0.319705,-0.0207 0.417545,0 0.602202,0.16537 0.186035,0.16398 0.186035,0.53468 z"
         style="font-style:normal;font-variant:normal;font-weight:bold;font-stretch:normal;font-size:2.82222223px;font-family:sans-serif;-inkscape-font-specification:'sans-serif, Bold';font-variant-ligatures:normal;font-variant-caps:normal;font-variant-numeric:normal;font-feature-settings:normal;text-align:start;writing-mode:lr-tb;text-anchor:start;stroke-width:0.26458332px"
         id="path6940" />
      <path
         d="m 14.997893,252.37087 v 0.43822 h 0.508496 v 0.35278 h -0.508496 v 0.65457 q 0,0.10748 0.04272,0.14607 0.04272,0.0372 0.169499,0.0372 h 0.253559 v 0.35277 h -0.423058 q -0.292144,0 -0.414789,-0.12126 -0.121268,-0.12265 -0.121268,-0.41479 v -0.65457 h -0.245291 v -0.35278 h 0.245291 v -0.43822 z"
         style="font-style:normal;font-variant:normal;font-weight:bold;font-stretch:normal;font-size:2.82222223px;font-family:sans-serif;-inkscape-font-specification:'sans-serif, Bold';font-variant-ligatures:normal;font-variant-caps:normal;font-variant-numeric:normal;font-feature-settings:normal;text-align:start;writing-mode:lr-tb;text-anchor:start;stroke-width:0.26458332px"
         id="path6942" />
      <path
         d="m 15.809557,252.80909 h 0.493338 v 1.5434 h -0.493338 z m 0,-0.60082 h 0.493338 v 0.40238 h -0.493338 z"
         style="font-style:normal;font-variant:normal;font-weight:bold;font-stretch:normal;font-size:2.82222223px;font-family:sans-serif;-inkscape-font-specification:'sans-serif, Bold';font-variant-ligatures:normal;font-variant-caps:normal;font-variant-numeric:normal;font-feature-settings:normal;text-align:start;writing-mode:lr-tb;text-anchor:start;stroke-width:0.26458332px"
         id="path6944" />
      <path
         d="m 17.51419,253.12466 q -0.163987,0 -0.250803,0.11851 -0.08544,0.11714 -0.08544,0.339 0,0.22186 0.08544,0.34038 0.08682,0.11713 0.250803,0.11713 0.161231,0 0.246669,-0.11713 0.08544,-0.11852 0.08544,-0.34038 0,-0.22186 -0.08544,-0.339 -0.08544,-0.11851 -0.246669,-0.11851 z m 0,-0.35278 q 0.398253,0 0.621495,0.21498 0.22462,0.21497 0.22462,0.59531 0,0.38034 -0.22462,0.59531 -0.223242,0.21498 -0.621495,0.21498 -0.399631,0 -0.625629,-0.21498 -0.224621,-0.21497 -0.224621,-0.59531 0,-0.38034 0.224621,-0.59531 0.225998,-0.21498 0.625629,-0.21498 z"
         style="font-style:normal;font-variant:normal;font-weight:bold;font-stretch:normal;font-size:2.82222223px;font-family:sans-serif;-inkscape-font-specification:'sans-serif, Bold';font-variant-ligatures:normal;font-variant-caps:normal;font-variant-numeric:normal;font-feature-settings:normal;text-align:start;writing-mode:lr-tb;text-anchor:start;stroke-width:0.26458332px"
         id="path6946" />
      <path
         d="m 20.271645,253.41267 v 0.93982 h -0.496094 v -0.15296 -0.56637 q 0,-0.19982 -0.0096,-0.27561 -0.0083,-0.0758 -0.03032,-0.11162 -0.02894,-0.0482 -0.07855,-0.0744 -0.04961,-0.0276 -0.112999,-0.0276 -0.154341,0 -0.242535,0.11989 -0.08819,0.11851 -0.08819,0.32935 v 0.7593 h -0.493337 v -1.5434 h 0.493337 v 0.226 q 0.111622,-0.13505 0.237023,-0.19844 0.125401,-0.0648 0.276986,-0.0648 0.267339,0 0.405143,0.16399 0.139182,0.16399 0.139182,0.4768 z"
         style="font-style:normal;font-variant:normal;font-weight:bold;font-stretch:normal;font-size:2.82222223px;font-family:sans-serif;-inkscape-font-specification:'sans-serif, Bold';font-variant-ligatures:normal;font-variant-caps:normal;font-variant-numeric:normal;font-feature-settings:normal;text-align:start;writing-mode:lr-tb;text-anchor:start;stroke-width:0.26458332px"
         id="path6948" />
    </g>
    <g
       aria-label="Notebook Page"
       style="font-style:normal;font-variant:normal;font-weight:bold;font-stretch:normal;font-size:2.82222223px;line-height:125%;font-family:sans-serif;-inkscape-font-specification:'sans-serif, Bold';font-variant-ligatures:normal;font-variant-caps:normal;font-variant-numeric:normal;font-feature-settings:normal;text-align:start;letter-spacing:0px;word-spacing:0px;writing-mode:lr-tb;text-anchor:start;fill:#000000;fill-opacity:1;stroke:none;stroke-width:0.26458332px;stroke-linecap:butt;stroke-linejoin:miter;stroke-opacity:1"
       id="text6824">
      <path
         d="m 4.4765709,284.32009 h 0.5925564 l 0.7482748,1.41111 v -1.41111 H 6.320386 v 2.05741 H 5.7278296 l -0.7482747,-1.41111 v 1.41111 h -0.502984 z"
         style="font-style:normal;font-variant:normal;font-weight:bold;font-stretch:normal;font-size:2.82222223px;font-family:sans-serif;-inkscape-font-specification:'sans-serif, Bold';font-variant-ligatures:normal;font-variant-caps:normal;font-variant-numeric:normal;font-feature-settings:normal;text-align:start;writing-mode:lr-tb;text-anchor:start;stroke-width:0.26458332px"
         id="path6878" />
      <path
         d="m 7.5537303,285.14967 q -0.1639865,0 -0.2508029,0.11851 -0.085438,0.11713 -0.085438,0.339 0,0.22186 0.085438,0.34037 0.086816,0.11714 0.2508029,0.11714 0.1612305,0 0.2466689,-0.11714 0.085438,-0.11851 0.085438,-0.34037 0,-0.22187 -0.085438,-0.339 -0.085438,-0.11851 -0.2466689,-0.11851 z m 0,-0.35278 q 0.3982531,0 0.6214953,0.21498 0.2246202,0.21497 0.2246202,0.59531 0,0.38034 -0.2246202,0.59531 -0.2232422,0.21498 -0.6214953,0.21498 -0.399631,0 -0.6256293,-0.21498 -0.2246202,-0.21497 -0.2246202,-0.59531 0,-0.38034 0.2246202,-0.59531 0.2259983,-0.21498 0.6256293,-0.21498 z"
         style="font-style:normal;font-variant:normal;font-weight:bold;font-stretch:normal;font-size:2.82222223px;font-family:sans-serif;-inkscape-font-specification:'sans-serif, Bold';font-variant-ligatures:normal;font-variant-caps:normal;font-variant-numeric:normal;font-feature-settings:normal;text-align:start;writing-mode:lr-tb;text-anchor:start;stroke-width:0.26458332px"
         id="path6880" />
      <path
         d="m 9.298327,284.39588 v 0.43822 h 0.5084961 v 0.35278 H 9.298327 v 0.65457 q 0,0.10748 0.042719,0.14607 0.042719,0.0372 0.1694987,0.0372 h 0.2535591 v 0.35278 H 9.3410461 q -0.2921441,0 -0.4147895,-0.12126 -0.1212673,-0.12265 -0.1212673,-0.41479 v -0.65457 H 8.5596985 v -0.35278 h 0.2452908 v -0.43822 z"
         style="font-style:normal;font-variant:normal;font-weight:bold;font-stretch:normal;font-size:2.82222223px;font-family:sans-serif;-inkscape-font-specification:'sans-serif, Bold';font-variant-ligatures:normal;font-variant-caps:normal;font-variant-numeric:normal;font-feature-settings:normal;text-align:start;writing-mode:lr-tb;text-anchor:start;stroke-width:0.26458332px"
         id="path6882" />
      <path
         d="m 11.650638,285.60167 v 0.14056 H 10.49722 q 0.01791,0.17363 0.125401,0.26045 0.107487,0.0868 0.300413,0.0868 0.155718,0 0.318327,-0.0455 0.163986,-0.0469 0.336241,-0.14056 v 0.38034 q -0.175011,0.0661 -0.350022,0.0992 -0.175011,0.0345 -0.350021,0.0345 -0.418924,0 -0.651813,-0.21222 -0.23151,-0.2136 -0.23151,-0.59807 0,-0.37758 0.227376,-0.59394 0.228755,-0.21635 0.628386,-0.21635 0.363802,0 0.581532,0.21911 0.219108,0.21911 0.219108,0.58567 z m -0.507118,-0.16399 q 0,-0.14056 -0.08268,-0.226 -0.08131,-0.0868 -0.213596,-0.0868 -0.143316,0 -0.232889,0.0813 -0.08957,0.0799 -0.111621,0.23151 z"
         style="font-style:normal;font-variant:normal;font-weight:bold;font-stretch:normal;font-size:2.82222223px;font-family:sans-serif;-inkscape-font-specification:'sans-serif, Bold';font-variant-ligatures:normal;font-variant-caps:normal;font-variant-numeric:normal;font-feature-settings:normal;text-align:start;writing-mode:lr-tb;text-anchor:start;stroke-width:0.26458332px"
         id="path6884" />
      <path
         d="m 12.844019,286.05918 q 0.158474,0 0.241157,-0.11576 0.08406,-0.11575 0.08406,-0.33624 0,-0.22049 -0.08406,-0.33624 -0.08268,-0.11576 -0.241157,-0.11576 -0.158475,0 -0.243913,0.11714 -0.08406,0.11575 -0.08406,0.33486 0,0.21911 0.08406,0.33624 0.08544,0.11576 0.243913,0.11576 z m -0.327973,-0.99908 q 0.101975,-0.13505 0.225998,-0.19844 0.124023,-0.0648 0.285254,-0.0648 0.285254,0 0.468533,0.22738 0.183279,0.226 0.183279,0.58291 0,0.35691 -0.183279,0.58429 -0.183279,0.226 -0.468533,0.226 -0.161231,0 -0.285254,-0.0634 -0.124023,-0.0648 -0.225998,-0.19982 v 0.22324 h -0.493338 v -2.14422 h 0.493338 z"
         style="font-style:normal;font-variant:normal;font-weight:bold;font-stretch:normal;font-size:2.82222223px;font-family:sans-serif;-inkscape-font-specification:'sans-serif, Bold';font-variant-ligatures:normal;font-variant-caps:normal;font-variant-numeric:normal;font-feature-settings:normal;text-align:start;writing-mode:lr-tb;text-anchor:start;stroke-width:0.26458332px"
         id="path6886" />
      <path
         d="m 14.780163,285.14967 q -0.163986,0 -0.250803,0.11851 -0.08544,0.11713 -0.08544,0.339 0,0.22186 0.08544,0.34037 0.08682,0.11714 0.250803,0.11714 0.161231,0 0.246669,-0.11714 0.08544,-0.11851 0.08544,-0.34037 0,-0.22187 -0.08544,-0.339 -0.08544,-0.11851 -0.246669,-0.11851 z m 0,-0.35278 q 0.398253,0 0.621495,0.21498 0.224621,0.21497 0.224621,0.59531 0,0.38034 -0.224621,0.59531 -0.223242,0.21498 -0.621495,0.21498 -0.399631,0 -0.625629,-0.21498 -0.22462,-0.21497 -0.22462,-0.59531 0,-0.38034 0.22462,-0.59531 0.225998,-0.21498 0.625629,-0.21498 z"
         style="font-style:normal;font-variant:normal;font-weight:bold;font-stretch:normal;font-size:2.82222223px;font-family:sans-serif;-inkscape-font-specification:'sans-serif, Bold';font-variant-ligatures:normal;font-variant-caps:normal;font-variant-numeric:normal;font-feature-settings:normal;text-align:start;writing-mode:lr-tb;text-anchor:start;stroke-width:0.26458332px"
         id="path6888" />
      <path
         d="m 16.72044,285.14967 q -0.163986,0 -0.250803,0.11851 -0.08544,0.11713 -0.08544,0.339 0,0.22186 0.08544,0.34037 0.08682,0.11714 0.250803,0.11714 0.161231,0 0.246669,-0.11714 0.08544,-0.11851 0.08544,-0.34037 0,-0.22187 -0.08544,-0.339 -0.08544,-0.11851 -0.246669,-0.11851 z m 0,-0.35278 q 0.398253,0 0.621495,0.21498 0.224621,0.21497 0.224621,0.59531 0,0.38034 -0.224621,0.59531 -0.223242,0.21498 -0.621495,0.21498 -0.399631,0 -0.625629,-0.21498 -0.22462,-0.21497 -0.22462,-0.59531 0,-0.38034 0.22462,-0.59531 0.225998,-0.21498 0.625629,-0.21498 z"
         style="font-style:normal;font-variant:normal;font-weight:bold;font-stretch:normal;font-size:2.82222223px;font-family:sans-serif;-inkscape-font-specification:'sans-serif, Bold';font-variant-ligatures:normal;font-variant-caps:normal;font-variant-numeric:normal;font-feature-settings:normal;text-align:start;writing-mode:lr-tb;text-anchor:start;stroke-width:0.26458332px"
         id="path6890" />
      <path
         d="m 17.926224,284.23328 h 0.493338 v 1.16719 l 0.567751,-0.56637 h 0.573264 l -0.753787,0.70831 0.813043,0.83509 h -0.598069 l -0.602202,-0.64354 v 0.64354 h -0.493338 z"
         style="font-style:normal;font-variant:normal;font-weight:bold;font-stretch:normal;font-size:2.82222223px;font-family:sans-serif;-inkscape-font-specification:'sans-serif, Bold';font-variant-ligatures:normal;font-variant-caps:normal;font-variant-numeric:normal;font-feature-settings:normal;text-align:start;writing-mode:lr-tb;text-anchor:start;stroke-width:0.26458332px"
         id="path6892" />
      <path
         d="m 20.809081,284.32009 h 0.880566 q 0.392741,0 0.602203,0.17501 0.21084,0.17364 0.21084,0.4961 0,0.32383 -0.21084,0.49885 -0.209462,0.17363 -0.602203,0.17363 h -0.350021 v 0.71382 h -0.530545 z m 0.530545,0.38447 v 0.57465 h 0.293522 q 0.15434,0 0.2384,-0.0744 0.08406,-0.0758 0.08406,-0.21359 0,-0.13781 -0.08406,-0.21222 -0.08406,-0.0744 -0.2384,-0.0744 z"
         style="font-style:normal;font-variant:normal;font-weight:bold;font-stretch:normal;font-size:2.82222223px;font-family:sans-serif;-inkscape-font-specification:'sans-serif, Bold';font-variant-ligatures:normal;font-variant-caps:normal;font-variant-numeric:normal;font-feature-settings:normal;text-align:start;writing-mode:lr-tb;text-anchor:start;stroke-width:0.26458332px"
         id="path6894" />
      <path
         d="m 23.468693,285.68297 q -0.15434,0 -0.232889,0.0524 -0.07717,0.0524 -0.07717,0.15434 0,0.0937 0.06201,0.14745 0.06339,0.0524 0.175011,0.0524 0.139182,0 0.234266,-0.0992 0.09508,-0.10059 0.09508,-0.2508 v -0.0565 z m 0.753787,-0.18603 v 0.88056 h -0.497472 v -0.22875 q -0.09922,0.14056 -0.223242,0.20533 -0.124024,0.0634 -0.301791,0.0634 -0.239778,0 -0.389984,-0.13919 -0.148829,-0.14056 -0.148829,-0.3638 0,-0.27147 0.186036,-0.39825 0.187413,-0.12678 0.587044,-0.12678 h 0.290766 v -0.0386 q 0,-0.11713 -0.09233,-0.17087 -0.09233,-0.0551 -0.28801,-0.0551 -0.158474,0 -0.2949,0.0317 -0.136426,0.0317 -0.253559,0.0951 v -0.37621 q 0.158475,-0.0386 0.318327,-0.0579 0.159852,-0.0207 0.319705,-0.0207 0.417545,0 0.602203,0.16537 0.186035,0.16398 0.186035,0.53468 z"
         style="font-style:normal;font-variant:normal;font-weight:bold;font-stretch:normal;font-size:2.82222223px;font-family:sans-serif;-inkscape-font-specification:'sans-serif, Bold';font-variant-ligatures:normal;font-variant-caps:normal;font-variant-numeric:normal;font-feature-settings:normal;text-align:start;writing-mode:lr-tb;text-anchor:start;stroke-width:0.26458332px"
         id="path6896" />
      <path
         d="m 25.734188,286.11568 q -0.101975,0.13504 -0.22462,0.19843 -0.122645,0.0634 -0.283876,0.0634 -0.282498,0 -0.467155,-0.22186 -0.184657,-0.22324 -0.184657,-0.56775 0,-0.34589 0.184657,-0.56638 0.184657,-0.22186 0.467155,-0.22186 0.161231,0 0.283876,0.0634 0.122645,0.0634 0.22462,0.19981 v -0.22875 h 0.496094 v 1.38768 q 0,0.37207 -0.235644,0.56776 -0.234267,0.19706 -0.680751,0.19706 -0.144694,0 -0.279742,-0.0221 -0.135048,-0.022 -0.271474,-0.0675 v -0.38447 q 0.129536,0.0744 0.253559,0.11024 0.124024,0.0372 0.249425,0.0372 0.242535,0 0.355534,-0.10611 0.112999,-0.10611 0.112999,-0.33211 z m -0.325217,-0.9605 q -0.152962,0 -0.2384,0.113 -0.08544,0.113 -0.08544,0.31971 0,0.21221 0.08268,0.32246 0.08268,0.10886 0.241156,0.10886 0.154341,0 0.239779,-0.113 0.08544,-0.113 0.08544,-0.31832 0,-0.20671 -0.08544,-0.31971 -0.08544,-0.113 -0.239779,-0.113 z"
         style="font-style:normal;font-variant:normal;font-weight:bold;font-stretch:normal;font-size:2.82222223px;font-family:sans-serif;-inkscape-font-specification:'sans-serif, Bold';font-variant-ligatures:normal;font-variant-caps:normal;font-variant-numeric:normal;font-feature-settings:normal;text-align:start;writing-mode:lr-tb;text-anchor:start;stroke-width:0.26458332px"
         id="path6898" />
      <path
         d="m 28.247731,285.60167 v 0.14056 h -1.153418 q 0.01791,0.17363 0.125401,0.26045 0.107487,0.0868 0.300412,0.0868 0.155719,0 0.318327,-0.0455 0.163987,-0.0469 0.336242,-0.14056 v 0.38034 q -0.175011,0.0661 -0.350022,0.0992 -0.175011,0.0345 -0.350022,0.0345 -0.418923,0 -0.651812,-0.21222 -0.23151,-0.2136 -0.23151,-0.59807 0,-0.37758 0.227376,-0.59394 0.228754,-0.21635 0.628385,-0.21635 0.363802,0 0.581533,0.21911 0.219108,0.21911 0.219108,0.58567 z m -0.507118,-0.16399 q 0,-0.14056 -0.08268,-0.226 -0.0813,-0.0868 -0.213596,-0.0868 -0.143316,0 -0.232888,0.0813 -0.08957,0.0799 -0.111621,0.23151 z"
         style="font-style:normal;font-variant:normal;font-weight:bold;font-stretch:normal;font-size:2.82222223px;font-family:sans-serif;-inkscape-font-specification:'sans-serif, Bold';font-variant-ligatures:normal;font-variant-caps:normal;font-variant-numeric:normal;font-feature-settings:normal;text-align:start;writing-mode:lr-tb;text-anchor:start;stroke-width:0.26458332px"
         id="path6900" />
    </g>
    <g
       aria-label="Identification"
       style="font-style:normal;font-variant:normal;font-weight:bold;font-stretch:normal;font-size:2.82222223px;line-height:125%;font-family:sans-serif;-inkscape-font-specification:'sans-serif, Bold';font-variant-ligatures:normal;font-variant-caps:normal;font-variant-numeric:normal;font-feature-settings:normal;text-align:start;letter-spacing:0px;word-spacing:0px;writing-mode:lr-tb;text-anchor:start;fill:#000000;fill-opacity:1;stroke:none;stroke-width:0.26458332px;stroke-linecap:butt;stroke-linejoin:miter;stroke-opacity:1"
       id="text6828">
      <path
         d="m 4.4765709,262.97009 h 0.5305447 v 2.05741 H 4.4765709 Z"
         style="font-style:normal;font-variant:normal;font-weight:bold;font-stretch:normal;font-size:2.82222223px;font-family:sans-serif;-inkscape-font-specification:'sans-serif, Bold';font-variant-ligatures:normal;font-variant-caps:normal;font-variant-numeric:normal;font-feature-settings:normal;text-align:start;writing-mode:lr-tb;text-anchor:start;stroke-width:0.26458332px"
         id="path6903" />
      <path
         d="m 6.5574086,263.71009 v -0.82682 h 0.4960937 v 2.14423 H 6.5574086 v -0.22325 q -0.1019749,0.13643 -0.2246203,0.19982 -0.1226454,0.0634 -0.2838758,0.0634 -0.2852539,0 -0.468533,-0.226 -0.1832791,-0.22738 -0.1832791,-0.58429 0,-0.35691 0.1832791,-0.58291 0.1832791,-0.22737 0.468533,-0.22737 0.1598524,0 0.2824978,0.0648 0.1240234,0.0634 0.2259983,0.19844 z m -0.325217,0.99908 q 0.1584743,0 0.2411566,-0.11576 0.08406,-0.11575 0.08406,-0.33624 0,-0.22048 -0.08406,-0.33624 -0.082682,-0.11575 -0.2411566,-0.11575 -0.1570964,0 -0.2411567,0.11575 -0.082682,0.11576 -0.082682,0.33624 0,0.22049 0.082682,0.33624 0.08406,0.11576 0.2411567,0.11576 z"
         style="font-style:normal;font-variant:normal;font-weight:bold;font-stretch:normal;font-size:2.82222223px;font-family:sans-serif;-inkscape-font-specification:'sans-serif, Bold';font-variant-ligatures:normal;font-variant-caps:normal;font-variant-numeric:normal;font-feature-settings:normal;text-align:start;writing-mode:lr-tb;text-anchor:start;stroke-width:0.26458332px"
         id="path6905" />
      <path
         d="m 9.0709504,264.25166 v 0.14056 h -1.153418 q 0.017914,0.17363 0.1254015,0.26045 0.1074869,0.0868 0.3004123,0.0868 0.1557183,0 0.3183268,-0.0455 0.1639866,-0.0469 0.3362413,-0.14056 v 0.38034 q -0.1750108,0.0661 -0.3500217,0.0992 -0.1750108,0.0344 -0.3500217,0.0344 -0.4189236,0 -0.651812,-0.21222 -0.2315105,-0.21359 -0.2315105,-0.59807 0,-0.37758 0.2273763,-0.59393 0.2287544,-0.21635 0.6283855,-0.21635 0.363802,0 0.5815321,0.2191 0.2191081,0.21911 0.2191081,0.58567 z m -0.5071181,-0.16399 q 0,-0.14056 -0.082682,-0.22599 -0.081304,-0.0868 -0.2135959,-0.0868 -0.143316,0 -0.2328885,0.0813 -0.089573,0.0799 -0.1116211,0.23151 z"
         style="font-style:normal;font-variant:normal;font-weight:bold;font-stretch:normal;font-size:2.82222223px;font-family:sans-serif;-inkscape-font-specification:'sans-serif, Bold';font-variant-ligatures:normal;font-variant-caps:normal;font-variant-numeric:normal;font-feature-settings:normal;text-align:start;writing-mode:lr-tb;text-anchor:start;stroke-width:0.26458332px"
         id="path6907" />
      <path
         d="m 10.994692,264.08767 v 0.93983 h -0.496094 v -0.15297 -0.56637 q 0,-0.19982 -0.0096,-0.27561 -0.0083,-0.0758 -0.03032,-0.11162 -0.02894,-0.0482 -0.07855,-0.0744 -0.04961,-0.0276 -0.112999,-0.0276 -0.15434,0 -0.242534,0.11989 -0.088195,0.11851 -0.088195,0.32935 v 0.7593 H 9.4430205 v -1.54341 h 0.4933377 v 0.226 q 0.1116208,-0.13505 0.2370228,-0.19844 0.125401,-0.0648 0.276985,-0.0648 0.26734,0 0.405144,0.16398 0.139182,0.16399 0.139182,0.4768 z"
         style="font-style:normal;font-variant:normal;font-weight:bold;font-stretch:normal;font-size:2.82222223px;font-family:sans-serif;-inkscape-font-specification:'sans-serif, Bold';font-variant-ligatures:normal;font-variant-caps:normal;font-variant-numeric:normal;font-feature-settings:normal;text-align:start;writing-mode:lr-tb;text-anchor:start;stroke-width:0.26458332px"
         id="path6909" />
      <path
         d="m 11.993769,263.04588 v 0.43821 h 0.508496 v 0.35278 h -0.508496 v 0.65457 q 0,0.10749 0.04272,0.14607 0.04272,0.0372 0.169499,0.0372 h 0.253559 v 0.35278 h -0.423058 q -0.292144,0 -0.414789,-0.12127 -0.121268,-0.12265 -0.121268,-0.41479 v -0.65457 h -0.24529 v -0.35278 h 0.24529 v -0.43821 z"
         style="font-style:normal;font-variant:normal;font-weight:bold;font-stretch:normal;font-size:2.82222223px;font-family:sans-serif;-inkscape-font-specification:'sans-serif, Bold';font-variant-ligatures:normal;font-variant-caps:normal;font-variant-numeric:normal;font-feature-settings:normal;text-align:start;writing-mode:lr-tb;text-anchor:start;stroke-width:0.26458332px"
         id="path6911" />
      <path
         d="m 12.805433,263.48409 h 0.493338 v 1.54341 h -0.493338 z m 0,-0.60082 h 0.493338 v 0.40239 h -0.493338 z"
         style="font-style:normal;font-variant:normal;font-weight:bold;font-stretch:normal;font-size:2.82222223px;font-family:sans-serif;-inkscape-font-specification:'sans-serif, Bold';font-variant-ligatures:normal;font-variant-caps:normal;font-variant-numeric:normal;font-feature-settings:normal;text-align:start;writing-mode:lr-tb;text-anchor:start;stroke-width:0.26458332px"
         id="path6913" />
      <path
         d="m 14.791187,262.88327 v 0.32384 h -0.272851 q -0.104731,0 -0.146073,0.0386 -0.04134,0.0372 -0.04134,0.13092 v 0.10748 h 0.42168 v 0.35278 h -0.42168 v 1.19063 h -0.493337 v -1.19063 h -0.245291 v -0.35278 h 0.245291 v -0.10748 q 0,-0.25218 0.14056,-0.37207 0.140559,-0.12127 0.43546,-0.12127 z"
         style="font-style:normal;font-variant:normal;font-weight:bold;font-stretch:normal;font-size:2.82222223px;font-family:sans-serif;-inkscape-font-specification:'sans-serif, Bold';font-variant-ligatures:normal;font-variant-caps:normal;font-variant-numeric:normal;font-feature-settings:normal;text-align:start;writing-mode:lr-tb;text-anchor:start;stroke-width:0.26458332px"
         id="path6915" />
      <path
         d="m 15.004783,263.48409 h 0.493338 v 1.54341 h -0.493338 z m 0,-0.60082 h 0.493338 v 0.40239 h -0.493338 z"
         style="font-style:normal;font-variant:normal;font-weight:bold;font-stretch:normal;font-size:2.82222223px;font-family:sans-serif;-inkscape-font-specification:'sans-serif, Bold';font-variant-ligatures:normal;font-variant-caps:normal;font-variant-numeric:normal;font-feature-settings:normal;text-align:start;writing-mode:lr-tb;text-anchor:start;stroke-width:0.26458332px"
         id="path6917" />
      <path
         d="m 17.222046,263.53232 v 0.40239 q -0.100597,-0.0689 -0.202572,-0.10197 -0.100596,-0.0331 -0.209461,-0.0331 -0.206706,0 -0.322461,0.12127 -0.114378,0.11989 -0.114378,0.33624 0,0.21635 0.114378,0.33762 0.115755,0.11989 0.322461,0.11989 0.115755,0 0.219108,-0.0344 0.104731,-0.0344 0.192925,-0.10197 v 0.40376 q -0.115755,0.0427 -0.235645,0.0634 -0.118511,0.022 -0.2384,0.022 -0.417546,0 -0.65319,-0.2136 -0.235645,-0.21497 -0.235645,-0.59669 0,-0.38171 0.235645,-0.59531 0.235644,-0.21497 0.65319,-0.21497 0.121267,0 0.2384,0.022 0.118512,0.0207 0.235645,0.0634 z"
         style="font-style:normal;font-variant:normal;font-weight:bold;font-stretch:normal;font-size:2.82222223px;font-family:sans-serif;-inkscape-font-specification:'sans-serif, Bold';font-variant-ligatures:normal;font-variant-caps:normal;font-variant-numeric:normal;font-feature-settings:normal;text-align:start;writing-mode:lr-tb;text-anchor:start;stroke-width:0.26458332px"
         id="path6919" />
      <path
         d="m 18.342391,264.33297 q -0.15434,0 -0.232888,0.0524 -0.07717,0.0524 -0.07717,0.15434 0,0.0937 0.06201,0.14745 0.06339,0.0524 0.175011,0.0524 0.139182,0 0.234267,-0.0992 0.09508,-0.1006 0.09508,-0.25081 v -0.0565 z m 0.753787,-0.18604 v 0.88057 h -0.497472 v -0.22876 q -0.09922,0.14056 -0.223242,0.20533 -0.124023,0.0634 -0.30179,0.0634 -0.239779,0 -0.389985,-0.13918 -0.148828,-0.14056 -0.148828,-0.3638 0,-0.27148 0.186035,-0.39826 0.187413,-0.12678 0.587044,-0.12678 h 0.290766 v -0.0386 q 0,-0.11714 -0.09233,-0.17088 -0.09233,-0.0551 -0.28801,-0.0551 -0.158475,0 -0.294901,0.0317 -0.136425,0.0317 -0.253559,0.0951 v -0.37621 q 0.158475,-0.0386 0.318327,-0.0579 0.159853,-0.0207 0.319705,-0.0207 0.417546,0 0.602203,0.16536 0.186035,0.16399 0.186035,0.53468 z"
         style="font-style:normal;font-variant:normal;font-weight:bold;font-stretch:normal;font-size:2.82222223px;font-family:sans-serif;-inkscape-font-specification:'sans-serif, Bold';font-variant-ligatures:normal;font-variant-caps:normal;font-variant-numeric:normal;font-feature-settings:normal;text-align:start;writing-mode:lr-tb;text-anchor:start;stroke-width:0.26458332px"
         id="path6921" />
      <path
         d="m 20.096633,263.04588 v 0.43821 h 0.508497 v 0.35278 h -0.508497 v 0.65457 q 0,0.10749 0.04272,0.14607 0.04272,0.0372 0.169498,0.0372 h 0.253559 v 0.35278 h -0.423057 q -0.292144,0 -0.41479,-0.12127 -0.121267,-0.12265 -0.121267,-0.41479 v -0.65457 h -0.245291 v -0.35278 h 0.245291 v -0.43821 z"
         style="font-style:normal;font-variant:normal;font-weight:bold;font-stretch:normal;font-size:2.82222223px;font-family:sans-serif;-inkscape-font-specification:'sans-serif, Bold';font-variant-ligatures:normal;font-variant-caps:normal;font-variant-numeric:normal;font-feature-settings:normal;text-align:start;writing-mode:lr-tb;text-anchor:start;stroke-width:0.26458332px"
         id="path6923" />
      <path
         d="m 20.908298,263.48409 h 0.493337 v 1.54341 h -0.493337 z m 0,-0.60082 h 0.493337 v 0.40239 h -0.493337 z"
         style="font-style:normal;font-variant:normal;font-weight:bold;font-stretch:normal;font-size:2.82222223px;font-family:sans-serif;-inkscape-font-specification:'sans-serif, Bold';font-variant-ligatures:normal;font-variant-caps:normal;font-variant-numeric:normal;font-feature-settings:normal;text-align:start;writing-mode:lr-tb;text-anchor:start;stroke-width:0.26458332px"
         id="path6925" />
      <path
         d="m 22.612933,263.79966 q -0.163987,0 -0.250803,0.11852 -0.08544,0.11713 -0.08544,0.33899 0,0.22187 0.08544,0.34038 0.08682,0.11713 0.250803,0.11713 0.16123,0 0.246668,-0.11713 0.08544,-0.11851 0.08544,-0.34038 0,-0.22186 -0.08544,-0.33899 -0.08544,-0.11852 -0.246668,-0.11852 z m 0,-0.35277 q 0.398253,0 0.621495,0.21497 0.22462,0.21497 0.22462,0.59531 0,0.38034 -0.22462,0.59532 -0.223242,0.21497 -0.621495,0.21497 -0.399632,0 -0.62563,-0.21497 -0.22462,-0.21498 -0.22462,-0.59532 0,-0.38034 0.22462,-0.59531 0.225998,-0.21497 0.62563,-0.21497 z"
         style="font-style:normal;font-variant:normal;font-weight:bold;font-stretch:normal;font-size:2.82222223px;font-family:sans-serif;-inkscape-font-specification:'sans-serif, Bold';font-variant-ligatures:normal;font-variant-caps:normal;font-variant-numeric:normal;font-feature-settings:normal;text-align:start;writing-mode:lr-tb;text-anchor:start;stroke-width:0.26458332px"
         id="path6927" />
      <path
         d="m 25.370386,264.08767 v 0.93983 h -0.496093 v -0.15297 -0.56637 q 0,-0.19982 -0.0096,-0.27561 -0.0083,-0.0758 -0.03032,-0.11162 -0.02894,-0.0482 -0.07855,-0.0744 -0.04961,-0.0276 -0.112999,-0.0276 -0.15434,0 -0.242535,0.11989 -0.08819,0.11851 -0.08819,0.32935 v 0.7593 h -0.493338 v -1.54341 h 0.493338 v 0.226 q 0.111621,-0.13505 0.237023,-0.19844 0.125401,-0.0648 0.276985,-0.0648 0.26734,0 0.405143,0.16398 0.139182,0.16399 0.139182,0.4768 z"
         style="font-style:normal;font-variant:normal;font-weight:bold;font-stretch:normal;font-size:2.82222223px;font-family:sans-serif;-inkscape-font-specification:'sans-serif, Bold';font-variant-ligatures:normal;font-variant-caps:normal;font-variant-numeric:normal;font-feature-settings:normal;text-align:start;writing-mode:lr-tb;text-anchor:start;stroke-width:0.26458332px"
         id="path6929" />
    </g>
    <g
       aria-label="Coordinates"
       style="font-style:normal;font-variant:normal;font-weight:bold;font-stretch:normal;font-size:2.82222223px;line-height:125%;font-family:sans-serif;-inkscape-font-specification:'sans-serif, Bold';font-variant-ligatures:normal;font-variant-caps:normal;font-variant-numeric:normal;font-feature-settings:normal;text-align:start;letter-spacing:0px;word-spacing:0px;writing-mode:lr-tb;text-anchor:start;fill:#000000;fill-opacity:1;stroke:none;stroke-width:0.26458332px;stroke-linecap:butt;stroke-linejoin:miter;stroke-opacity:1"
       id="text6832">
      <path
         d="m 6.1081681,232.8895 q -0.146072,0.0758 -0.3045464,0.11438 -0.1584744,0.0386 -0.3307292,0.0386 -0.5140082,0 -0.8144205,-0.28664 -0.3004124,-0.28801 -0.3004124,-0.77997 0,-0.49333 0.3004124,-0.77997 0.3004123,-0.28801 0.8144205,-0.28801 0.1722548,0 0.3307292,0.0386 0.1584744,0.0386 0.3045464,0.11438 v 0.42581 q -0.14745,-0.1006 -0.290766,-0.14745 -0.143316,-0.0469 -0.3017904,-0.0469 -0.2838759,0 -0.4464844,0.1819 -0.1626085,0.1819 -0.1626085,0.5016 0,0.31833 0.1626085,0.50023 0.1626085,0.1819 0.4464844,0.1819 0.1584744,0 0.3017904,-0.0469 0.143316,-0.0469 0.290766,-0.14745 z"
         style="font-style:normal;font-variant:normal;font-weight:bold;font-stretch:normal;font-size:2.82222223px;font-family:sans-serif;-inkscape-font-specification:'sans-serif, Bold';font-variant-ligatures:normal;font-variant-caps:normal;font-variant-numeric:normal;font-feature-settings:normal;text-align:start;writing-mode:lr-tb;text-anchor:start;stroke-width:0.26458332px"
         id="path6951" />
      <path
         d="m 7.261586,231.77467 q -0.1639865,0 -0.2508029,0.11851 -0.085438,0.11713 -0.085438,0.339 0,0.22186 0.085438,0.34037 0.086816,0.11714 0.2508029,0.11714 0.1612305,0 0.2466689,-0.11714 0.085438,-0.11851 0.085438,-0.34037 0,-0.22187 -0.085438,-0.339 -0.085438,-0.11851 -0.2466689,-0.11851 z m 0,-0.35278 q 0.3982531,0 0.6214953,0.21498 0.2246202,0.21497 0.2246202,0.59531 0,0.38034 -0.2246202,0.59531 -0.2232422,0.21498 -0.6214953,0.21498 -0.399631,0 -0.6256293,-0.21498 -0.2246202,-0.21497 -0.2246202,-0.59531 0,-0.38034 0.2246202,-0.59531 0.2259983,-0.21498 0.6256293,-0.21498 z"
         style="font-style:normal;font-variant:normal;font-weight:bold;font-stretch:normal;font-size:2.82222223px;font-family:sans-serif;-inkscape-font-specification:'sans-serif, Bold';font-variant-ligatures:normal;font-variant-caps:normal;font-variant-numeric:normal;font-feature-settings:normal;text-align:start;writing-mode:lr-tb;text-anchor:start;stroke-width:0.26458332px"
         id="path6953" />
      <path
         d="m 9.2018636,231.77467 q -0.1639865,0 -0.2508029,0.11851 -0.085438,0.11713 -0.085438,0.339 0,0.22186 0.085438,0.34037 0.086816,0.11714 0.2508029,0.11714 0.1612305,0 0.2466688,-0.11714 0.085438,-0.11851 0.085438,-0.34037 0,-0.22187 -0.085438,-0.339 -0.085438,-0.11851 -0.2466688,-0.11851 z m 0,-0.35278 q 0.3982531,0 0.6214952,0.21498 0.2246202,0.21497 0.2246202,0.59531 0,0.38034 -0.2246202,0.59531 -0.2232421,0.21498 -0.6214952,0.21498 -0.3996311,0 -0.6256293,-0.21498 -0.2246203,-0.21497 -0.2246203,-0.59531 0,-0.38034 0.2246203,-0.59531 0.2259982,-0.21498 0.6256293,-0.21498 z"
         style="font-style:normal;font-variant:normal;font-weight:bold;font-stretch:normal;font-size:2.82222223px;font-family:sans-serif;-inkscape-font-specification:'sans-serif, Bold';font-variant-ligatures:normal;font-variant-caps:normal;font-variant-numeric:normal;font-feature-settings:normal;text-align:start;writing-mode:lr-tb;text-anchor:start;stroke-width:0.26458332px"
         id="path6955" />
      <path
         d="m 11.554175,231.8794 q -0.06477,-0.0303 -0.129536,-0.0441 -0.06339,-0.0151 -0.128157,-0.0151 -0.190169,0 -0.293522,0.12264 -0.101975,0.12127 -0.101975,0.34864 v 0.71107 h -0.493338 v -1.5434 h 0.493338 v 0.25356 q 0.09508,-0.15159 0.21773,-0.22049 0.124023,-0.0703 0.296278,-0.0703 0.0248,0 0.05374,0.003 0.02894,0.001 0.08406,0.008 z"
         style="font-style:normal;font-variant:normal;font-weight:bold;font-stretch:normal;font-size:2.82222223px;font-family:sans-serif;-inkscape-font-specification:'sans-serif, Bold';font-variant-ligatures:normal;font-variant-caps:normal;font-variant-numeric:normal;font-feature-settings:normal;text-align:start;writing-mode:lr-tb;text-anchor:start;stroke-width:0.26458332px"
         id="path6957" />
      <path
         d="m 12.852287,231.6851 v -0.82682 h 0.496094 v 2.14422 h -0.496094 v -0.22324 q -0.101975,0.13643 -0.22462,0.19982 -0.122646,0.0634 -0.283876,0.0634 -0.285254,0 -0.468533,-0.226 -0.183279,-0.22738 -0.183279,-0.58429 0,-0.35691 0.183279,-0.58291 0.183279,-0.22738 0.468533,-0.22738 0.159852,0 0.282498,0.0648 0.124023,0.0634 0.225998,0.19844 z m -0.325217,0.99908 q 0.158474,0 0.241157,-0.11576 0.08406,-0.11575 0.08406,-0.33624 0,-0.22049 -0.08406,-0.33624 -0.08268,-0.11576 -0.241157,-0.11576 -0.157096,0 -0.241157,0.11576 -0.08268,0.11575 -0.08268,0.33624 0,0.22049 0.08268,0.33624 0.08406,0.11576 0.241157,0.11576 z"
         style="font-style:normal;font-variant:normal;font-weight:bold;font-stretch:normal;font-size:2.82222223px;font-family:sans-serif;-inkscape-font-specification:'sans-serif, Bold';font-variant-ligatures:normal;font-variant-caps:normal;font-variant-numeric:normal;font-feature-settings:normal;text-align:start;writing-mode:lr-tb;text-anchor:start;stroke-width:0.26458332px"
         id="path6959" />
      <path
         d="m 13.825182,231.4591 h 0.493338 v 1.5434 h -0.493338 z m 0,-0.60082 h 0.493338 v 0.40238 h -0.493338 z"
         style="font-style:normal;font-variant:normal;font-weight:bold;font-stretch:normal;font-size:2.82222223px;font-family:sans-serif;-inkscape-font-specification:'sans-serif, Bold';font-variant-ligatures:normal;font-variant-caps:normal;font-variant-numeric:normal;font-feature-settings:normal;text-align:start;writing-mode:lr-tb;text-anchor:start;stroke-width:0.26458332px"
         id="path6961" />
      <path
         d="m 16.346992,232.06268 v 0.93982 h -0.496094 v -0.15296 -0.56637 q 0,-0.19982 -0.0096,-0.27561 -0.0083,-0.0758 -0.03032,-0.11162 -0.02894,-0.0482 -0.07855,-0.0744 -0.04961,-0.0276 -0.112999,-0.0276 -0.154341,0 -0.242535,0.11989 -0.0882,0.11851 -0.0882,0.32935 v 0.7593 h -0.493337 v -1.5434 h 0.493337 v 0.226 q 0.111621,-0.13505 0.237023,-0.19844 0.125401,-0.0648 0.276986,-0.0648 0.267339,0 0.405143,0.16399 0.139182,0.16399 0.139182,0.4768 z"
         style="font-style:normal;font-variant:normal;font-weight:bold;font-stretch:normal;font-size:2.82222223px;font-family:sans-serif;-inkscape-font-specification:'sans-serif, Bold';font-variant-ligatures:normal;font-variant-caps:normal;font-variant-numeric:normal;font-feature-settings:normal;text-align:start;writing-mode:lr-tb;text-anchor:start;stroke-width:0.26458332px"
         id="path6963" />
      <path
         d="m 17.499032,232.30797 q -0.15434,0 -0.232888,0.0524 -0.07717,0.0524 -0.07717,0.15434 0,0.0937 0.06201,0.14745 0.06339,0.0524 0.175011,0.0524 0.139182,0 0.234267,-0.0992 0.09508,-0.10059 0.09508,-0.2508 v -0.0565 z m 0.753787,-0.18603 v 0.88056 h -0.497472 v -0.22875 q -0.09922,0.14056 -0.223242,0.20533 -0.124023,0.0634 -0.30179,0.0634 -0.239779,0 -0.389985,-0.13919 -0.148828,-0.14056 -0.148828,-0.3638 0,-0.27147 0.186035,-0.39825 0.187413,-0.12678 0.587044,-0.12678 h 0.290766 v -0.0386 q 0,-0.11713 -0.09233,-0.17087 -0.09233,-0.0551 -0.28801,-0.0551 -0.158475,0 -0.294901,0.0317 -0.136425,0.0317 -0.253559,0.0951 v -0.37621 q 0.158475,-0.0386 0.318327,-0.0579 0.159853,-0.0207 0.319705,-0.0207 0.417546,0 0.602203,0.16537 0.186035,0.16398 0.186035,0.53468 z"
         style="font-style:normal;font-variant:normal;font-weight:bold;font-stretch:normal;font-size:2.82222223px;font-family:sans-serif;-inkscape-font-specification:'sans-serif, Bold';font-variant-ligatures:normal;font-variant-caps:normal;font-variant-numeric:normal;font-feature-settings:normal;text-align:start;writing-mode:lr-tb;text-anchor:start;stroke-width:0.26458332px"
         id="path6965" />
      <path
         d="m 19.253274,231.02088 v 0.43822 h 0.508497 v 0.35278 h -0.508497 v 0.65457 q 0,0.10748 0.04272,0.14607 0.04272,0.0372 0.169498,0.0372 h 0.253559 v 0.35278 h -0.423057 q -0.292144,0 -0.41479,-0.12126 -0.121267,-0.12265 -0.121267,-0.41479 v -0.65457 h -0.245291 v -0.35278 h 0.245291 v -0.43822 z"
         style="font-style:normal;font-variant:normal;font-weight:bold;font-stretch:normal;font-size:2.82222223px;font-family:sans-serif;-inkscape-font-specification:'sans-serif, Bold';font-variant-ligatures:normal;font-variant-caps:normal;font-variant-numeric:normal;font-feature-settings:normal;text-align:start;writing-mode:lr-tb;text-anchor:start;stroke-width:0.26458332px"
         id="path6967" />
      <path
         d="m 21.605585,232.22667 v 0.14056 h -1.153418 q 0.01792,0.17363 0.125402,0.26045 0.107487,0.0868 0.300412,0.0868 0.155719,0 0.318327,-0.0455 0.163987,-0.0469 0.336241,-0.14056 v 0.38034 q -0.17501,0.0661 -0.350021,0.0992 -0.175011,0.0345 -0.350022,0.0345 -0.418924,0 -0.651812,-0.21222 -0.23151,-0.2136 -0.23151,-0.59807 0,-0.37758 0.227376,-0.59394 0.228754,-0.21635 0.628385,-0.21635 0.363802,0 0.581532,0.21911 0.219108,0.21911 0.219108,0.58567 z m -0.507118,-0.16399 q 0,-0.14056 -0.08268,-0.226 -0.0813,-0.0868 -0.213596,-0.0868 -0.143316,0 -0.232888,0.0813 -0.08957,0.0799 -0.111621,0.23151 z"
         style="font-style:normal;font-variant:normal;font-weight:bold;font-stretch:normal;font-size:2.82222223px;font-family:sans-serif;-inkscape-font-specification:'sans-serif, Bold';font-variant-ligatures:normal;font-variant-caps:normal;font-variant-numeric:normal;font-feature-settings:normal;text-align:start;writing-mode:lr-tb;text-anchor:start;stroke-width:0.26458332px"
         id="path6969" />
      <path
         d="m 23.18344,231.50733 v 0.37483 q -0.158474,-0.0661 -0.305925,-0.0992 -0.14745,-0.0331 -0.278363,-0.0331 -0.14056,0 -0.209462,0.0358 -0.06752,0.0345 -0.06752,0.10749 0,0.0593 0.05099,0.0909 0.05237,0.0317 0.186036,0.0469 l 0.08682,0.0124 q 0.378961,0.0482 0.509874,0.15847 0.130914,0.11025 0.130914,0.34589 0,0.24667 -0.181901,0.37069 -0.181901,0.12403 -0.542947,0.12403 -0.152963,0 -0.316949,-0.0248 -0.162609,-0.0234 -0.334863,-0.0717 v -0.37482 q 0.14745,0.0717 0.30179,0.10748 0.155718,0.0358 0.315571,0.0358 0.144694,0 0.21773,-0.04 0.07304,-0.04 0.07304,-0.11851 0,-0.0661 -0.05099,-0.0978 -0.04961,-0.0331 -0.199815,-0.051 l -0.08682,-0.011 q -0.329351,-0.0414 -0.461642,-0.15297 -0.132292,-0.11162 -0.132292,-0.33899 0,-0.24529 0.168121,-0.36381 0.16812,-0.11851 0.515386,-0.11851 0.136426,0 0.286632,0.0207 0.150206,0.0207 0.326595,0.0648 z"
         style="font-style:normal;font-variant:normal;font-weight:bold;font-stretch:normal;font-size:2.82222223px;font-family:sans-serif;-inkscape-font-specification:'sans-serif, Bold';font-variant-ligatures:normal;font-variant-caps:normal;font-variant-numeric:normal;font-feature-settings:normal;text-align:start;writing-mode:lr-tb;text-anchor:start;stroke-width:0.26458332px"
         id="path6971" />
    </g>
    <g
       aria-label="Locality"
       style="font-style:normal;font-variant:normal;font-weight:bold;font-stretch:normal;font-size:2.82222223px;line-height:125%;font-family:sans-serif;-inkscape-font-specification:'sans-serif, Bold';font-variant-ligatures:normal;font-variant-caps:normal;font-variant-numeric:normal;font-feature-settings:normal;text-align:start;letter-spacing:0px;word-spacing:0px;writing-mode:lr-tb;text-anchor:start;fill:#000000;fill-opacity:1;stroke:none;stroke-width:0.26458332px;stroke-linecap:butt;stroke-linejoin:miter;stroke-opacity:1"
       id="text6836">
      <path
         d="m 4.4765709,220.27009 h 0.5305447 v 1.6564 h 0.9315538 v 0.40101 H 4.4765709 Z"
         style="font-style:normal;font-variant:normal;font-weight:bold;font-stretch:normal;font-size:2.82222223px;font-family:sans-serif;-inkscape-font-specification:'sans-serif, Bold';font-variant-ligatures:normal;font-variant-caps:normal;font-variant-numeric:normal;font-feature-settings:normal;text-align:start;writing-mode:lr-tb;text-anchor:start;stroke-width:0.26458332px"
         id="path6974" />
      <path
         d="m 6.9859784,221.09967 q -0.1639865,0 -0.2508029,0.11851 -0.085438,0.11713 -0.085438,0.339 0,0.22186 0.085438,0.34037 0.086816,0.11713 0.2508029,0.11713 0.1612305,0 0.2466689,-0.11713 0.085438,-0.11851 0.085438,-0.34037 0,-0.22187 -0.085438,-0.339 -0.085438,-0.11851 -0.2466689,-0.11851 z m 0,-0.35278 q 0.3982531,0 0.6214953,0.21497 0.2246202,0.21498 0.2246202,0.59532 0,0.38033 -0.2246202,0.59531 -0.2232422,0.21497 -0.6214953,0.21497 -0.399631,0 -0.6256293,-0.21497 -0.2246202,-0.21498 -0.2246202,-0.59531 0,-0.38034 0.2246202,-0.59532 0.2259983,-0.21497 0.6256293,-0.21497 z"
         style="font-style:normal;font-variant:normal;font-weight:bold;font-stretch:normal;font-size:2.82222223px;font-family:sans-serif;-inkscape-font-specification:'sans-serif, Bold';font-variant-ligatures:normal;font-variant-caps:normal;font-variant-numeric:normal;font-feature-settings:normal;text-align:start;writing-mode:lr-tb;text-anchor:start;stroke-width:0.26458332px"
         id="path6976" />
      <path
         d="m 9.4388865,220.83233 v 0.40239 q -0.1005968,-0.0689 -0.2025716,-0.10198 -0.1005968,-0.0331 -0.2094618,-0.0331 -0.2067058,0 -0.322461,0.12126 -0.1143772,0.11989 -0.1143772,0.33625 0,0.21635 0.1143772,0.33762 0.1157552,0.11988 0.322461,0.11988 0.1157552,0 0.219108,-0.0344 0.1047309,-0.0344 0.1929254,-0.10197 v 0.40376 q -0.1157552,0.0427 -0.2356446,0.0634 -0.1185112,0.0221 -0.2384006,0.0221 -0.4175455,0 -0.6531901,-0.21359 -0.2356445,-0.21498 -0.2356445,-0.59669 0,-0.38172 0.2356445,-0.59532 0.2356446,-0.21497 0.6531901,-0.21497 0.1212674,0 0.2384006,0.022 0.1185113,0.0207 0.2356446,0.0634 z"
         style="font-style:normal;font-variant:normal;font-weight:bold;font-stretch:normal;font-size:2.82222223px;font-family:sans-serif;-inkscape-font-specification:'sans-serif, Bold';font-variant-ligatures:normal;font-variant-caps:normal;font-variant-numeric:normal;font-feature-settings:normal;text-align:start;writing-mode:lr-tb;text-anchor:start;stroke-width:0.26458332px"
         id="path6978" />
      <path
         d="m 10.559232,221.63297 q -0.15434,0 -0.232889,0.0524 -0.07717,0.0524 -0.07717,0.15434 0,0.0937 0.06201,0.14745 0.06339,0.0524 0.175011,0.0524 0.139182,0 0.234266,-0.0992 0.09509,-0.1006 0.09509,-0.2508 v -0.0565 z m 0.753787,-0.18604 v 0.88057 h -0.497472 v -0.22875 q -0.09922,0.14055 -0.223242,0.20532 -0.124024,0.0634 -0.301791,0.0634 -0.239778,0 -0.3899845,-0.13918 -0.1488281,-0.14056 -0.1488281,-0.3638 0,-0.27147 0.1860352,-0.39825 0.1874134,-0.12678 0.5870444,-0.12678 h 0.290766 v -0.0386 q 0,-0.11713 -0.09233,-0.17088 -0.09233,-0.0551 -0.28801,-0.0551 -0.158474,0 -0.2949,0.0317 -0.136426,0.0317 -0.2535589,0.0951 v -0.3762 q 0.1584749,-0.0386 0.3183269,-0.0579 0.159852,-0.0207 0.319705,-0.0207 0.417545,0 0.602203,0.16536 0.186035,0.16399 0.186035,0.53468 z"
         style="font-style:normal;font-variant:normal;font-weight:bold;font-stretch:normal;font-size:2.82222223px;font-family:sans-serif;-inkscape-font-specification:'sans-serif, Bold';font-variant-ligatures:normal;font-variant-caps:normal;font-variant-numeric:normal;font-feature-settings:normal;text-align:start;writing-mode:lr-tb;text-anchor:start;stroke-width:0.26458332px"
         id="path6980" />
      <path
         d="m 11.774661,220.18327 h 0.493338 v 2.14423 h -0.493338 z"
         style="font-style:normal;font-variant:normal;font-weight:bold;font-stretch:normal;font-size:2.82222223px;font-family:sans-serif;-inkscape-font-specification:'sans-serif, Bold';font-variant-ligatures:normal;font-variant-caps:normal;font-variant-numeric:normal;font-feature-settings:normal;text-align:start;writing-mode:lr-tb;text-anchor:start;stroke-width:0.26458332px"
         id="path6982" />
      <path
         d="m 12.7448,220.7841 h 0.493337 v 1.5434 H 12.7448 Z m 0,-0.60083 h 0.493337 v 0.40239 H 12.7448 Z"
         style="font-style:normal;font-variant:normal;font-weight:bold;font-stretch:normal;font-size:2.82222223px;font-family:sans-serif;-inkscape-font-specification:'sans-serif, Bold';font-variant-ligatures:normal;font-variant-caps:normal;font-variant-numeric:normal;font-feature-settings:normal;text-align:start;writing-mode:lr-tb;text-anchor:start;stroke-width:0.26458332px"
         id="path6984" />
      <path
         d="m 14.253752,220.34588 v 0.43822 h 0.508496 v 0.35277 h -0.508496 v 0.65457 q 0,0.10749 0.04272,0.14607 0.04272,0.0372 0.169499,0.0372 h 0.253559 v 0.35278 h -0.423058 q -0.292144,0 -0.414789,-0.12127 -0.121267,-0.12264 -0.121267,-0.41479 v -0.65457 h -0.245291 v -0.35277 h 0.245291 v -0.43822 z"
         style="font-style:normal;font-variant:normal;font-weight:bold;font-stretch:normal;font-size:2.82222223px;font-family:sans-serif;-inkscape-font-specification:'sans-serif, Bold';font-variant-ligatures:normal;font-variant-caps:normal;font-variant-numeric:normal;font-feature-settings:normal;text-align:start;writing-mode:lr-tb;text-anchor:start;stroke-width:0.26458332px"
         id="path6986" />
      <path
         d="m 14.862845,220.7841 h 0.493338 l 0.414789,1.04731 0.352778,-1.04731 h 0.493338 l -0.649056,1.68947 q -0.09784,0.25769 -0.228755,0.35967 -0.129535,0.10335 -0.343131,0.10335 h -0.285254 v -0.32384 h 0.15434 q 0.125402,0 0.181901,-0.04 0.05788,-0.04 0.08957,-0.14332 l 0.01378,-0.0427 z"
         style="font-style:normal;font-variant:normal;font-weight:bold;font-stretch:normal;font-size:2.82222223px;font-family:sans-serif;-inkscape-font-specification:'sans-serif, Bold';font-variant-ligatures:normal;font-variant-caps:normal;font-variant-numeric:normal;font-feature-settings:normal;text-align:start;writing-mode:lr-tb;text-anchor:start;stroke-width:0.26458332px"
         id="path6988" />
    </g>
    <g
       aria-label="Field # - Date"
       style="font-style:normal;font-variant:normal;font-weight:bold;font-stretch:normal;font-size:2.82222223px;line-height:125%;font-family:sans-serif;-inkscape-font-specification:'sans-serif, Bold';font-variant-ligatures:normal;font-variant-caps:normal;font-variant-numeric:normal;font-feature-settings:normal;text-align:start;letter-spacing:0px;word-spacing:0px;writing-mode:lr-tb;text-anchor:start;fill:#000000;fill-opacity:1;stroke:none;stroke-width:0.26458332px;stroke-linecap:butt;stroke-linejoin:miter;stroke-opacity:1"
       id="text6840">
      <path
         d="m 4.4765709,209.59509 h 1.4317817 v 0.401 h -0.901237 v 0.3831 h 0.8474935 v 0.40101 H 5.0071156 v 0.8723 H 4.4765709 Z"
         style="font-style:normal;font-variant:normal;font-weight:bold;font-stretch:normal;font-size:2.82222223px;font-family:sans-serif;-inkscape-font-specification:'sans-serif, Bold';font-variant-ligatures:normal;font-variant-caps:normal;font-variant-numeric:normal;font-feature-settings:normal;text-align:start;writing-mode:lr-tb;text-anchor:start;stroke-width:0.26458332px"
         id="path6991" />
      <path
         d="m 6.3837758,210.10909 h 0.4933376 v 1.54341 H 6.3837758 Z m 0,-0.60082 h 0.4933376 v 0.40239 H 6.3837758 Z"
         style="font-style:normal;font-variant:normal;font-weight:bold;font-stretch:normal;font-size:2.82222223px;font-family:sans-serif;-inkscape-font-specification:'sans-serif, Bold';font-variant-ligatures:normal;font-variant-caps:normal;font-variant-numeric:normal;font-feature-settings:normal;text-align:start;writing-mode:lr-tb;text-anchor:start;stroke-width:0.26458332px"
         id="path6993" />
      <path
         d="m 8.8945614,210.87666 v 0.14056 h -1.153418 q 0.017914,0.17363 0.1254015,0.26045 0.107487,0.0868 0.3004123,0.0868 0.1557183,0 0.3183268,-0.0455 0.1639866,-0.0468 0.3362414,-0.14056 v 0.38034 q -0.1750109,0.0662 -0.3500218,0.0992 -0.1750108,0.0345 -0.3500217,0.0345 -0.4189236,0 -0.651812,-0.21222 -0.2315104,-0.21359 -0.2315104,-0.59807 0,-0.37758 0.2273763,-0.59393 0.2287543,-0.21635 0.6283854,-0.21635 0.3638021,0 0.5815321,0.2191 0.2191081,0.21911 0.2191081,0.58567 z m -0.5071181,-0.16399 q 0,-0.14056 -0.082682,-0.22599 -0.081304,-0.0868 -0.2135959,-0.0868 -0.143316,0 -0.2328884,0.0813 -0.089573,0.0799 -0.1116211,0.23151 z"
         style="font-style:normal;font-variant:normal;font-weight:bold;font-stretch:normal;font-size:2.82222223px;font-family:sans-serif;-inkscape-font-specification:'sans-serif, Bold';font-variant-ligatures:normal;font-variant-caps:normal;font-variant-numeric:normal;font-feature-settings:normal;text-align:start;writing-mode:lr-tb;text-anchor:start;stroke-width:0.26458332px"
         id="path6995" />
      <path
         d="m 9.2666318,209.50827 h 0.4933376 v 2.14423 H 9.2666318 Z"
         style="font-style:normal;font-variant:normal;font-weight:bold;font-stretch:normal;font-size:2.82222223px;font-family:sans-serif;-inkscape-font-specification:'sans-serif, Bold';font-variant-ligatures:normal;font-variant-caps:normal;font-variant-numeric:normal;font-feature-settings:normal;text-align:start;writing-mode:lr-tb;text-anchor:start;stroke-width:0.26458332px"
         id="path6997" />
      <path
         d="m 11.286836,210.33509 v -0.82682 h 0.496094 v 2.14423 h -0.496094 v -0.22325 q -0.101975,0.13643 -0.22462,0.19982 -0.122646,0.0634 -0.283876,0.0634 -0.285254,0 -0.468533,-0.226 -0.183279,-0.22738 -0.183279,-0.58429 0,-0.35691 0.183279,-0.58291 0.183279,-0.22737 0.468533,-0.22737 0.159852,0 0.282498,0.0648 0.124023,0.0634 0.225998,0.19844 z m -0.325217,0.99908 q 0.158474,0 0.241157,-0.11576 0.08406,-0.11575 0.08406,-0.33624 0,-0.22048 -0.08406,-0.33624 -0.08268,-0.11575 -0.241157,-0.11575 -0.157096,0 -0.241157,0.11575 -0.08268,0.11576 -0.08268,0.33624 0,0.22049 0.08268,0.33624 0.08406,0.11576 0.241157,0.11576 z"
         style="font-style:normal;font-variant:normal;font-weight:bold;font-stretch:normal;font-size:2.82222223px;font-family:sans-serif;-inkscape-font-specification:'sans-serif, Bold';font-variant-ligatures:normal;font-variant-caps:normal;font-variant-numeric:normal;font-feature-settings:normal;text-align:start;writing-mode:lr-tb;text-anchor:start;stroke-width:0.26458332px"
         id="path6999" />
      <path
         d="m 14.259264,209.62678 -0.132292,0.53054 h 0.363802 l 0.13367,-0.53054 h 0.304546 l -0.133669,0.53054 h 0.381716 v 0.29353 h -0.454752 l -0.09508,0.37758 h 0.391363 v 0.29628 h -0.463021 l -0.132292,0.52779 h -0.304546 l 0.132292,-0.52779 h -0.363803 l -0.132291,0.52779 h -0.307303 l 0.132292,-0.52779 h -0.384473 v -0.29628 h 0.451997 l 0.09646,-0.37758 h -0.389984 v -0.29353 h 0.465777 l 0.132291,-0.53054 z m 0.155718,0.82407 H 14.05118 l -0.09646,0.37758 h 0.363802 z"
         style="font-style:normal;font-variant:normal;font-weight:bold;font-stretch:normal;font-size:2.82222223px;font-family:sans-serif;-inkscape-font-specification:'sans-serif, Bold';font-variant-ligatures:normal;font-variant-caps:normal;font-variant-numeric:normal;font-feature-settings:normal;text-align:start;writing-mode:lr-tb;text-anchor:start;stroke-width:0.26458332px"
         id="path7001" />
      <path
         d="m 16.502711,210.63964 h 0.865408 v 0.40101 h -0.865408 z"
         style="font-style:normal;font-variant:normal;font-weight:bold;font-stretch:normal;font-size:2.82222223px;font-family:sans-serif;-inkscape-font-specification:'sans-serif, Bold';font-variant-ligatures:normal;font-variant-caps:normal;font-variant-numeric:normal;font-feature-settings:normal;text-align:start;writing-mode:lr-tb;text-anchor:start;stroke-width:0.26458332px"
         id="path7003" />
      <path
         d="m 19.294616,209.99609 v 1.2554 h 0.190169 q 0.325217,0 0.496094,-0.16123 0.172255,-0.16123 0.172255,-0.46854 0,-0.30592 -0.170877,-0.46577 -0.170877,-0.15986 -0.497472,-0.15986 z m -0.530545,-0.401 h 0.559484 q 0.468533,0 0.697287,0.0675 0.230133,0.0661 0.394119,0.226 0.144694,0.13918 0.214974,0.32108 0.07028,0.1819 0.07028,0.41203 0,0.23289 -0.07028,0.41617 -0.07028,0.1819 -0.214974,0.32108 -0.165365,0.15986 -0.396875,0.22738 -0.23151,0.0661 -0.694531,0.0661 h -0.559484 z"
         style="font-style:normal;font-variant:normal;font-weight:bold;font-stretch:normal;font-size:2.82222223px;font-family:sans-serif;-inkscape-font-specification:'sans-serif, Bold';font-variant-ligatures:normal;font-variant-caps:normal;font-variant-numeric:normal;font-feature-settings:normal;text-align:start;writing-mode:lr-tb;text-anchor:start;stroke-width:0.26458332px"
         id="path7005" />
      <path
         d="m 21.776463,210.95797 q -0.154341,0 -0.232889,0.0524 -0.07717,0.0524 -0.07717,0.15434 0,0.0937 0.06201,0.14745 0.06339,0.0524 0.175011,0.0524 0.139181,0 0.234266,-0.0992 0.09509,-0.1006 0.09509,-0.25081 v -0.0565 z m 0.753786,-0.18604 v 0.88057 h -0.497471 v -0.22876 q -0.09922,0.14056 -0.223243,0.20533 -0.124023,0.0634 -0.30179,0.0634 -0.239779,0 -0.389985,-0.13918 -0.148828,-0.14056 -0.148828,-0.3638 0,-0.27148 0.186035,-0.39826 0.187414,-0.12678 0.587045,-0.12678 h 0.290766 v -0.0386 q 0,-0.11714 -0.09233,-0.17088 -0.09233,-0.0551 -0.28801,-0.0551 -0.158474,0 -0.2949,0.0317 -0.136426,0.0317 -0.253559,0.0951 v -0.37621 q 0.158474,-0.0386 0.318327,-0.0579 0.159852,-0.0207 0.319705,-0.0207 0.417545,0 0.602202,0.16536 0.186035,0.16399 0.186035,0.53468 z"
         style="font-style:normal;font-variant:normal;font-weight:bold;font-stretch:normal;font-size:2.82222223px;font-family:sans-serif;-inkscape-font-specification:'sans-serif, Bold';font-variant-ligatures:normal;font-variant-caps:normal;font-variant-numeric:normal;font-feature-settings:normal;text-align:start;writing-mode:lr-tb;text-anchor:start;stroke-width:0.26458332px"
         id="path7007" />
      <path
         d="m 23.530706,209.67088 v 0.43821 h 0.508496 v 0.35278 h -0.508496 v 0.65457 q 0,0.10749 0.04272,0.14607 0.04272,0.0372 0.169499,0.0372 h 0.253559 v 0.35278 h -0.423058 q -0.292144,0 -0.414789,-0.12127 -0.121268,-0.12265 -0.121268,-0.41479 v -0.65457 h -0.245291 v -0.35278 h 0.245291 v -0.43821 z"
         style="font-style:normal;font-variant:normal;font-weight:bold;font-stretch:normal;font-size:2.82222223px;font-family:sans-serif;-inkscape-font-specification:'sans-serif, Bold';font-variant-ligatures:normal;font-variant-caps:normal;font-variant-numeric:normal;font-feature-settings:normal;text-align:start;writing-mode:lr-tb;text-anchor:start;stroke-width:0.26458332px"
         id="path7009" />
      <path
         d="m 25.883017,210.87666 v 0.14056 h -1.153418 q 0.01791,0.17363 0.125401,0.26045 0.107487,0.0868 0.300413,0.0868 0.155718,0 0.318327,-0.0455 0.163986,-0.0468 0.336241,-0.14056 v 0.38034 q -0.175011,0.0662 -0.350022,0.0992 -0.175011,0.0345 -0.350022,0.0345 -0.418923,0 -0.651812,-0.21222 -0.23151,-0.21359 -0.23151,-0.59807 0,-0.37758 0.227376,-0.59393 0.228755,-0.21635 0.628386,-0.21635 0.363802,0 0.581532,0.2191 0.219108,0.21911 0.219108,0.58567 z m -0.507118,-0.16399 q 0,-0.14056 -0.08268,-0.22599 -0.0813,-0.0868 -0.213596,-0.0868 -0.143316,0 -0.232889,0.0813 -0.08957,0.0799 -0.111621,0.23151 z"
         style="font-style:normal;font-variant:normal;font-weight:bold;font-stretch:normal;font-size:2.82222223px;font-family:sans-serif;-inkscape-font-specification:'sans-serif, Bold';font-variant-ligatures:normal;font-variant-caps:normal;font-variant-numeric:normal;font-feature-settings:normal;text-align:start;writing-mode:lr-tb;text-anchor:start;stroke-width:0.26458332px"
         id="path7011" />
    </g>
    <g
       aria-label="IN SITU"
       style="font-style:normal;font-variant:normal;font-weight:bold;font-stretch:normal;font-size:2.82222223px;line-height:125%;font-family:sans-serif;-inkscape-font-specification:'sans-serif, Bold';font-variant-ligatures:normal;font-variant-caps:normal;font-variant-numeric:normal;font-feature-settings:normal;text-align:start;letter-spacing:0px;word-spacing:0px;writing-mode:lr-tb;text-anchor:start;fill:#000000;fill-opacity:1;stroke:none;stroke-width:0.26458332px;stroke-linecap:butt;stroke-linejoin:miter;stroke-opacity:1"
       id="text6844">
      <path
         d="m 37.016567,285.36114 h 0.530545 v 2.05741 h -0.530545 z"
         style="font-style:normal;font-variant:normal;font-weight:bold;font-stretch:normal;font-size:2.82222223px;font-family:sans-serif;-inkscape-font-specification:'sans-serif, Bold';font-variant-ligatures:normal;font-variant-caps:normal;font-variant-numeric:normal;font-feature-settings:normal;text-align:start;writing-mode:lr-tb;text-anchor:start;stroke-width:0.26458332px"
         id="path6854" />
      <path
         d="m 38.069388,285.36114 h 0.592557 l 0.748274,1.41111 v -1.41111 h 0.502984 v 2.05741 h -0.592556 l -0.748275,-1.41111 v 1.41111 h -0.502984 z"
         style="font-style:normal;font-variant:normal;font-weight:bold;font-stretch:normal;font-size:2.82222223px;font-family:sans-serif;-inkscape-font-specification:'sans-serif, Bold';font-variant-ligatures:normal;font-variant-caps:normal;font-variant-numeric:normal;font-feature-settings:normal;text-align:start;writing-mode:lr-tb;text-anchor:start;stroke-width:0.26458332px"
         id="path6856" />
      <path
         d="m 42.847047,285.42591 v 0.43546 q -0.169499,-0.0758 -0.33073,-0.11438 -0.16123,-0.0386 -0.304546,-0.0386 -0.190169,0 -0.28112,0.0524 -0.09095,0.0524 -0.09095,0.16261 0,0.0827 0.06063,0.12953 0.06201,0.0455 0.223243,0.0786 l 0.225998,0.0455 q 0.343131,0.0689 0.487825,0.20946 0.144694,0.14056 0.144694,0.39963 0,0.34037 -0.202571,0.50712 -0.201194,0.16536 -0.615983,0.16536 -0.195682,0 -0.392741,-0.0372 -0.19706,-0.0372 -0.394119,-0.11024 v -0.44786 q 0.197059,0.10473 0.380338,0.15847 0.184658,0.0524 0.355534,0.0524 0.173633,0 0.265962,-0.0579 0.09233,-0.0579 0.09233,-0.16536 0,-0.0965 -0.06339,-0.14883 -0.06201,-0.0524 -0.249424,-0.0937 l -0.205328,-0.0455 q -0.308681,-0.0661 -0.451997,-0.21084 -0.141938,-0.1447 -0.141938,-0.38999 0,-0.3073 0.198438,-0.47266 0.198437,-0.16537 0.570508,-0.16537 0.169498,0 0.348643,0.0262 0.179145,0.0248 0.370693,0.0758 z"
         style="font-style:normal;font-variant:normal;font-weight:bold;font-stretch:normal;font-size:2.82222223px;font-family:sans-serif;-inkscape-font-specification:'sans-serif, Bold';font-variant-ligatures:normal;font-variant-caps:normal;font-variant-numeric:normal;font-feature-settings:normal;text-align:start;writing-mode:lr-tb;text-anchor:start;stroke-width:0.26458332px"
         id="path6858" />
      <path
         d="m 43.44925,285.36114 h 0.530544 v 2.05741 H 43.44925 Z"
         style="font-style:normal;font-variant:normal;font-weight:bold;font-stretch:normal;font-size:2.82222223px;font-family:sans-serif;-inkscape-font-specification:'sans-serif, Bold';font-variant-ligatures:normal;font-variant-caps:normal;font-variant-numeric:normal;font-feature-settings:normal;text-align:start;writing-mode:lr-tb;text-anchor:start;stroke-width:0.26458332px"
         id="path6860" />
      <path
         d="m 44.25678,285.36114 h 1.89618 v 0.40101 h -0.682128 v 1.6564 h -0.530545 v -1.6564 H 44.25678 Z"
         style="font-style:normal;font-variant:normal;font-weight:bold;font-stretch:normal;font-size:2.82222223px;font-family:sans-serif;-inkscape-font-specification:'sans-serif, Bold';font-variant-ligatures:normal;font-variant-caps:normal;font-variant-numeric:normal;font-feature-settings:normal;text-align:start;writing-mode:lr-tb;text-anchor:start;stroke-width:0.26458332px"
         id="path6862" />
      <path
         d="m 46.425812,285.36114 h 0.530544 v 1.23334 q 0,0.25494 0.08268,0.36518 0.08406,0.10887 0.272851,0.10887 0.190169,0 0.272852,-0.10887 0.08406,-0.11024 0.08406,-0.36518 v -1.23334 h 0.530545 v 1.23334 q 0,0.43684 -0.219108,0.65044 -0.219108,0.21359 -0.668349,0.21359 -0.447862,0 -0.66697,-0.21359 -0.219108,-0.2136 -0.219108,-0.65044 z"
         style="font-style:normal;font-variant:normal;font-weight:bold;font-stretch:normal;font-size:2.82222223px;font-family:sans-serif;-inkscape-font-specification:'sans-serif, Bold';font-variant-ligatures:normal;font-variant-caps:normal;font-variant-numeric:normal;font-feature-settings:normal;text-align:start;writing-mode:lr-tb;text-anchor:start;stroke-width:0.26458332px"
         id="path6864" />
    </g>
    <g
       aria-label="FLOAT"
       style="font-style:normal;font-variant:normal;font-weight:bold;font-stretch:normal;font-size:2.82222223px;line-height:125%;font-family:sans-serif;-inkscape-font-specification:'sans-serif, Bold';font-variant-ligatures:normal;font-variant-caps:normal;font-variant-numeric:normal;font-feature-settings:normal;text-align:start;letter-spacing:0px;word-spacing:0px;writing-mode:lr-tb;text-anchor:start;fill:#000000;fill-opacity:1;stroke:none;stroke-width:0.26458332px;stroke-linecap:butt;stroke-linejoin:miter;stroke-opacity:1"
       id="text6848">
      <path
         d="m 36.990108,289.65759 h 1.431782 v 0.401 h -0.901237 v 0.3831 h 0.847494 v 0.40101 h -0.847494 v 0.8723 h -0.530545 z"
         style="font-style:normal;font-variant:normal;font-weight:bold;font-stretch:normal;font-size:2.82222223px;font-family:sans-serif;-inkscape-font-specification:'sans-serif, Bold';font-variant-ligatures:normal;font-variant-caps:normal;font-variant-numeric:normal;font-feature-settings:normal;text-align:start;writing-mode:lr-tb;text-anchor:start;stroke-width:0.26458332px"
         id="path6867" />
      <path
         d="m 38.919362,289.65759 h 0.530544 v 1.6564 h 0.931554 v 0.40101 h -1.462098 z"
         style="font-style:normal;font-variant:normal;font-weight:bold;font-stretch:normal;font-size:2.82222223px;font-family:sans-serif;-inkscape-font-specification:'sans-serif, Bold';font-variant-ligatures:normal;font-variant-caps:normal;font-variant-numeric:normal;font-feature-settings:normal;text-align:start;writing-mode:lr-tb;text-anchor:start;stroke-width:0.26458332px"
         id="path6869" />
      <path
         d="m 41.556927,290.00485 q -0.242535,0 -0.376205,0.17915 -0.133669,0.17914 -0.133669,0.50436 0,0.32384 0.133669,0.50298 0.13367,0.17915 0.376205,0.17915 0.243913,0 0.377582,-0.17915 0.13367,-0.17914 0.13367,-0.50298 0,-0.32522 -0.13367,-0.50436 -0.133669,-0.17915 -0.377582,-0.17915 z m 0,-0.38447 q 0.496094,0 0.777213,0.28387 0.28112,0.28388 0.28112,0.78411 0,0.49885 -0.28112,0.78272 -0.281119,0.28388 -0.777213,0.28388 -0.494716,0 -0.777214,-0.28388 -0.281119,-0.28387 -0.281119,-0.78272 0,-0.50023 0.281119,-0.78411 0.282498,-0.28387 0.777214,-0.28387 z"
         style="font-style:normal;font-variant:normal;font-weight:bold;font-stretch:normal;font-size:2.82222223px;font-family:sans-serif;-inkscape-font-specification:'sans-serif, Bold';font-variant-ligatures:normal;font-variant-caps:normal;font-variant-numeric:normal;font-feature-settings:normal;text-align:start;writing-mode:lr-tb;text-anchor:start;stroke-width:0.26458332px"
         id="path6871" />
      <path
         d="M 44.186224,291.34017 H 43.356645 L 43.225731,291.715 H 42.69243 l 0.762055,-2.05741 h 0.63252 l 0.762055,2.05741 h -0.533301 z m -0.697288,-0.38172 h 0.563618 l -0.28112,-0.81855 z"
         style="font-style:normal;font-variant:normal;font-weight:bold;font-stretch:normal;font-size:2.82222223px;font-family:sans-serif;-inkscape-font-specification:'sans-serif, Bold';font-variant-ligatures:normal;font-variant-caps:normal;font-variant-numeric:normal;font-feature-settings:normal;text-align:start;writing-mode:lr-tb;text-anchor:start;stroke-width:0.26458332px"
         id="path6873" />
      <path
         d="m 44.654757,289.65759 h 1.89618 v 0.401 h -0.682129 v 1.65641 h -0.530544 v -1.65641 h -0.683507 z"
         style="font-style:normal;font-variant:normal;font-weight:bold;font-stretch:normal;font-size:2.82222223px;font-family:sans-serif;-inkscape-font-specification:'sans-serif, Bold';font-variant-ligatures:normal;font-variant-caps:normal;font-variant-numeric:normal;font-feature-settings:normal;text-align:start;writing-mode:lr-tb;text-anchor:start;stroke-width:0.26458332px"
         id="path6875" />
    </g>
    <rect
       style="fill:none;fill-opacity:1;stroke:#000000;stroke-width:0.25;stroke-miterlimit:4;stroke-dasharray:none;stroke-opacity:1"
       id="rect6850"
       width="1.9999999"
       height="2.135"
       x="33.217503"
       y="285.31" />
    <rect
       style="fill:none;fill-opacity:1;stroke:#000000;stroke-width:0.25;stroke-miterlimit:4;stroke-dasharray:none;stroke-opacity:1"
       id="rect6852"
       width="1.9999999"
       height="2.135"
       x="33.217503"
       y="289.57999" />
  </g>
</svg>
